<svg width="256" height="256" viewBox="0 0 256 256" fill="none" xmlns="http://www.w3.org/2000/svg">
<rect width="256" height="256" rx="128" fill="#101010"/>
<path d="M238 128C238 188.751 188.751 238 128 238C67.2487 238 18 188.751 18 128C18 67.2487 67.2487 18 128 18C188.751 18 238 67.2487 238 128ZM51 128C51 170.526 85.4741 205 128 205C170.526 205 205 170.526 205 128C205 85.4741 170.526 51 128 51C85.4741 51 51 85.4741 51 128Z" fill="#262626"/>
<path d="M128 22C128 19.7909 129.792 17.9924 131.999 18.0727C152.354 18.813 172.133 25.1931 189.113 36.5383C207.202 48.6253 221.301 65.805 229.627 85.9048C237.952 106.005 240.131 128.122 235.886 149.46C231.902 169.488 222.428 187.986 208.558 202.902C207.054 204.52 204.515 204.515 202.953 202.953L185.276 185.276C183.714 183.714 183.722 181.188 185.201 179.547C194.469 169.262 200.81 156.648 203.52 143.022C206.492 128.085 204.967 112.603 199.139 98.5334C193.311 84.4635 183.441 72.4377 170.779 63.9768C159.227 56.2581 145.824 51.8226 131.998 51.1039C129.792 50.9892 128 49.2091 128 47L128 22Z" fill="#16A34A"/>
</svg>
